<?xml version="1.0" encoding="iso-8859-1"?>
<!-- Generator: Adobe Illustrator 19.0.0, SVG Export Plug-In . SVG Version: 6.00 Build 0)  -->
<svg version="1.1" id="Layer_1" xmlns="http://www.w3.org/2000/svg" xmlns:xlink="http://www.w3.org/1999/xlink" x="0px" y="0px"
	 viewBox="0 0 512 512" style="enable-background:new 0 0 512 512;" xml:space="preserve">
<path style="fill:#EDEDED;" d="M473.6,422.4H38.4C17.28,422.4,0,405.12,0,384V128c0-21.12,17.28-38.4,38.4-38.4h435.2
	c21.12,0,38.4,17.28,38.4,38.4v256C512,405.12,494.72,422.4,473.6,422.4z"/>
<path style="fill:#D8D8DA;" d="M473.6,89.6h-64c21.12,0,38.4,17.28,38.4,38.4v256c0,21.12-17.28,38.4-38.4,38.4h64
	c21.12,0,38.4-17.28,38.4-38.4V128C512,106.88,494.72,89.6,473.6,89.6z"/>
<rect y="166.4" style="fill:#88888F;" width="512" height="76.8"/>
<rect x="448" y="166.4" style="fill:#797781;" width="64" height="76.8"/>
<circle style="fill:#E07188;" cx="89.6" cy="332.8" r="38.4"/>
<circle style="fill:#F8E99B;" cx="140.8" cy="332.8" r="38.4"/>
<g>
	<path style="fill:#88888F;" d="M438.4,316.8H233.6c-5.302,0-9.6-4.297-9.6-9.6c0-5.303,4.298-9.6,9.6-9.6h204.8
		c5.303,0,9.6,4.297,9.6,9.6C448,312.503,443.703,316.8,438.4,316.8z"/>
	<path style="fill:#88888F;" d="M412.8,355.2H233.6c-5.302,0-9.6-4.297-9.6-9.6c0-5.303,4.298-9.6,9.6-9.6h179.2
		c5.303,0,9.6,4.297,9.6,9.6C422.4,350.903,418.103,355.2,412.8,355.2z"/>
</g>
<g>
</g>
<g>
</g>
<g>
</g>
<g>
</g>
<g>
</g>
<g>
</g>
<g>
</g>
<g>
</g>
<g>
</g>
<g>
</g>
<g>
</g>
<g>
</g>
<g>
</g>
<g>
</g>
<g>
</g>
</svg>
