<?xml version="1.0" encoding="iso-8859-1"?>
<!-- Generator: Adobe Illustrator 19.0.0, SVG Export Plug-In . SVG Version: 6.00 Build 0)  -->
<svg version="1.1" id="Layer_1" xmlns="http://www.w3.org/2000/svg" xmlns:xlink="http://www.w3.org/1999/xlink" x="0px" y="0px"
	 viewBox="0 0 512 512" style="enable-background:new 0 0 512 512;" xml:space="preserve">
<g>
	<g>
		<path d="M107.576,189.958c-6.021,0-10.893,4.878-10.893,10.893V409.19H53.109V200.852c0-6.016-4.872-10.893-10.893-10.893
			s-10.893,4.878-10.893,10.893v217.87c0,6.016,6.234,12.255,12.255,12.255h65.361c6.021,0,9.532-6.239,9.532-12.255v-217.87
			C118.47,194.836,113.597,189.958,107.576,189.958z"/>
	</g>
</g>
<g>
	<g>
		<path d="M227.405,189.958c-6.021,0-10.893,4.878-10.893,10.893V409.19h-43.574V200.852c0-6.016-4.872-10.893-10.893-10.893
			s-10.893,4.878-10.893,10.893v217.87c0,6.016,6.234,12.255,12.255,12.255h65.361c6.021,0,9.532-6.239,9.532-12.255v-217.87
			C238.298,194.836,233.426,189.958,227.405,189.958z"/>
	</g>
</g>
<g>
	<g>
		<path d="M347.233,189.958c-6.021,0-10.893,4.878-10.893,10.893V409.19h-43.574V200.852c0-6.016-4.872-10.893-10.893-10.893
			c-6.021,0-10.893,4.878-10.893,10.893v217.87c0,6.016,6.234,12.255,12.255,12.255h65.361c6.021,0,9.532-6.239,9.532-12.255
			v-217.87C358.126,194.836,353.254,189.958,347.233,189.958z"/>
	</g>
</g>
<g>
	<g>
		<path d="M467.061,189.958c-6.021,0-10.893,4.878-10.893,10.893V409.19h-43.574V200.852c0-6.016-4.872-10.893-10.893-10.893
			s-10.893,4.878-10.893,10.893v217.87c0,6.016,6.234,12.255,12.255,12.255h65.361c6.021,0,9.532-6.239,9.532-12.255v-217.87
			C477.955,194.836,473.083,189.958,467.061,189.958z"/>
	</g>
</g>
<g>
	<g>
		<path d="M505.529,147.326L260.425,38.391c-2.83-1.255-6.021-1.255-8.851,0L6.471,147.326c-4.702,2.085-7.298,7.862-6.234,12.893
			c1.075,5.032,5.511,9.314,10.66,9.314h490.207c5.149,0,9.585-4.282,10.66-9.314C512.827,155.187,510.231,149.411,505.529,147.326z
			 M62.226,147.746L256,61.625l193.774,86.121H62.226z"/>
	</g>
</g>
<g>
	<g>
		<rect x="20.428" y="452.764" width="468.42" height="21.787"/>
	</g>
</g>
<g>
</g>
<g>
</g>
<g>
</g>
<g>
</g>
<g>
</g>
<g>
</g>
<g>
</g>
<g>
</g>
<g>
</g>
<g>
</g>
<g>
</g>
<g>
</g>
<g>
</g>
<g>
</g>
<g>
</g>
</svg>
